<mxfile host="Electron" agent="Mozilla/5.0 (Macintosh; Intel Mac OS X 10_15_7) AppleWebKit/537.36 (KHTML, like Gecko) draw.io/28.1.2 Chrome/138.0.7204.243 Electron/37.4.0 Safari/537.36" version="28.1.2">
  <diagram name="Page-1" id="UXJ0Q_BxNoRBPkE2C6Gg">
    <mxGraphModel dx="1030" dy="883" grid="1" gridSize="10" guides="1" tooltips="1" connect="1" arrows="1" fold="1" page="0" pageScale="1" pageWidth="850" pageHeight="1100" math="0" shadow="0">
      <root>
        <mxCell id="0" />
        <mxCell id="1" parent="0" />
        <mxCell id="M0Tuibsrs3bu3LggfVgh-9" value="" style="edgeStyle=orthogonalEdgeStyle;rounded=0;orthogonalLoop=1;jettySize=auto;html=1;" edge="1" parent="1" source="M0Tuibsrs3bu3LggfVgh-1" target="M0Tuibsrs3bu3LggfVgh-3">
          <mxGeometry relative="1" as="geometry" />
        </mxCell>
        <mxCell id="M0Tuibsrs3bu3LggfVgh-1" value="Request" style="rounded=0;whiteSpace=wrap;html=1;" vertex="1" parent="1">
          <mxGeometry x="160" y="120" width="120" height="40" as="geometry" />
        </mxCell>
        <mxCell id="M0Tuibsrs3bu3LggfVgh-6" value="" style="edgeStyle=orthogonalEdgeStyle;rounded=0;orthogonalLoop=1;jettySize=auto;html=1;" edge="1" parent="1" source="M0Tuibsrs3bu3LggfVgh-3" target="M0Tuibsrs3bu3LggfVgh-5">
          <mxGeometry relative="1" as="geometry" />
        </mxCell>
        <mxCell id="M0Tuibsrs3bu3LggfVgh-3" value="Middleware" style="rounded=0;whiteSpace=wrap;html=1;" vertex="1" parent="1">
          <mxGeometry x="160" y="180" width="120" height="40" as="geometry" />
        </mxCell>
        <mxCell id="M0Tuibsrs3bu3LggfVgh-11" value="" style="edgeStyle=orthogonalEdgeStyle;rounded=0;orthogonalLoop=1;jettySize=auto;html=1;" edge="1" parent="1" source="M0Tuibsrs3bu3LggfVgh-5" target="M0Tuibsrs3bu3LggfVgh-10">
          <mxGeometry relative="1" as="geometry" />
        </mxCell>
        <mxCell id="M0Tuibsrs3bu3LggfVgh-5" value="Middleware" style="rounded=0;whiteSpace=wrap;html=1;" vertex="1" parent="1">
          <mxGeometry x="160" y="240" width="120" height="40" as="geometry" />
        </mxCell>
        <mxCell id="M0Tuibsrs3bu3LggfVgh-8" value="" style="edgeStyle=orthogonalEdgeStyle;rounded=0;orthogonalLoop=1;jettySize=auto;html=1;entryX=0;entryY=0.5;entryDx=0;entryDy=0;" edge="1" parent="1" source="M0Tuibsrs3bu3LggfVgh-7" target="M0Tuibsrs3bu3LggfVgh-1">
          <mxGeometry relative="1" as="geometry" />
        </mxCell>
        <mxCell id="M0Tuibsrs3bu3LggfVgh-7" value="http request" style="ellipse;whiteSpace=wrap;html=1;aspect=fixed;" vertex="1" parent="1">
          <mxGeometry x="40" y="120" width="40" height="40" as="geometry" />
        </mxCell>
        <mxCell id="M0Tuibsrs3bu3LggfVgh-13" value="" style="edgeStyle=orthogonalEdgeStyle;rounded=0;orthogonalLoop=1;jettySize=auto;html=1;" edge="1" parent="1" source="M0Tuibsrs3bu3LggfVgh-10" target="M0Tuibsrs3bu3LggfVgh-12">
          <mxGeometry relative="1" as="geometry" />
        </mxCell>
        <mxCell id="M0Tuibsrs3bu3LggfVgh-10" value="Route" style="rounded=0;whiteSpace=wrap;html=1;" vertex="1" parent="1">
          <mxGeometry x="160" y="300" width="120" height="40" as="geometry" />
        </mxCell>
        <mxCell id="M0Tuibsrs3bu3LggfVgh-15" value="" style="edgeStyle=orthogonalEdgeStyle;rounded=0;orthogonalLoop=1;jettySize=auto;html=1;" edge="1" parent="1" source="M0Tuibsrs3bu3LggfVgh-12" target="M0Tuibsrs3bu3LggfVgh-14">
          <mxGeometry relative="1" as="geometry" />
        </mxCell>
        <mxCell id="M0Tuibsrs3bu3LggfVgh-12" value="Controller/Action" style="rounded=0;whiteSpace=wrap;html=1;" vertex="1" parent="1">
          <mxGeometry x="160" y="360" width="120" height="40" as="geometry" />
        </mxCell>
        <mxCell id="M0Tuibsrs3bu3LggfVgh-14" value="Response" style="rounded=0;whiteSpace=wrap;html=1;" vertex="1" parent="1">
          <mxGeometry x="160" y="420" width="120" height="40" as="geometry" />
        </mxCell>
        <mxCell id="M0Tuibsrs3bu3LggfVgh-16" value="http response" style="ellipse;whiteSpace=wrap;html=1;aspect=fixed;" vertex="1" parent="1">
          <mxGeometry x="370" y="420" width="40" height="40" as="geometry" />
        </mxCell>
        <mxCell id="M0Tuibsrs3bu3LggfVgh-19" value="" style="endArrow=classic;html=1;rounded=0;exitX=1;exitY=0.5;exitDx=0;exitDy=0;entryX=0;entryY=0.5;entryDx=0;entryDy=0;" edge="1" parent="1" source="M0Tuibsrs3bu3LggfVgh-14" target="M0Tuibsrs3bu3LggfVgh-16">
          <mxGeometry width="50" height="50" relative="1" as="geometry">
            <mxPoint x="400" y="500" as="sourcePoint" />
            <mxPoint x="450" y="450" as="targetPoint" />
          </mxGeometry>
        </mxCell>
      </root>
    </mxGraphModel>
  </diagram>
</mxfile>
